<svg width="130" height="41" viewBox="0 0 130 41" fill="none" xmlns="http://www.w3.org/2000/svg">
<rect x="0.257812" y="1.0791" width="129.168" height="39.7049" fill="#030211"/>
<path d="M9.0518 22.2116V19.6916H16.0418C17.2018 19.6916 18.1318 19.3416 18.8318 18.6416C19.5518 17.9416 19.9118 17.0216 19.9118 15.8816C19.9118 14.7016 19.5518 13.7716 18.8318 13.0916C18.1318 12.4116 17.2018 12.0716 16.0418 12.0716H9.5318V28.9316H6.6518V9.46164H15.9218C16.8818 9.46164 17.7718 9.60164 18.5918 9.88164C19.4318 10.1416 20.1618 10.5416 20.7818 11.0816C21.4218 11.6216 21.9118 12.2916 22.2518 13.0916C22.6118 13.8916 22.7918 14.8216 22.7918 15.8816C22.7918 16.9216 22.6118 17.8416 22.2518 18.6416C21.9118 19.4416 21.4218 20.1116 20.7818 20.6516C20.1618 21.1716 19.4318 21.5616 18.5918 21.8216C17.7718 22.0816 16.8818 22.2116 15.9218 22.2116H9.0518ZM32.7391 29.2616C31.2791 29.2616 29.9391 28.9516 28.7191 28.3316C27.4991 27.7116 26.5291 26.8216 25.8091 25.6616C25.0891 24.5016 24.7291 23.1116 24.7291 21.4916C24.7291 19.8516 25.0891 18.4516 25.8091 17.2916C26.5291 16.1116 27.4991 15.2116 28.7191 14.5916C29.9391 13.9716 31.2791 13.6616 32.7391 13.6616C34.1991 13.6616 35.5291 13.9716 36.7291 14.5916C37.9291 15.2116 38.8891 16.1116 39.6091 17.2916C40.3291 18.4516 40.6891 19.8516 40.6891 21.4916C40.6891 23.1116 40.3291 24.5016 39.6091 25.6616C38.8891 26.8216 37.9291 27.7116 36.7291 28.3316C35.5291 28.9516 34.1991 29.2616 32.7391 29.2616ZM32.7391 26.7716C33.6391 26.7716 34.4691 26.5716 35.2291 26.1716C36.0091 25.7516 36.6291 25.1516 37.0891 24.3716C37.5691 23.5716 37.8091 22.6116 37.8091 21.4916C37.8091 20.3516 37.5691 19.3816 37.0891 18.5816C36.6291 17.7816 36.0091 17.1716 35.2291 16.7516C34.4691 16.3316 33.6391 16.1216 32.7391 16.1216C31.8391 16.1216 30.9991 16.3316 30.2191 16.7516C29.4391 17.1516 28.8091 17.7516 28.3291 18.5516C27.8491 19.3516 27.6091 20.3316 27.6091 21.4916C27.6091 22.6116 27.8391 23.5716 28.2991 24.3716C28.7791 25.1516 29.4091 25.7516 30.1891 26.1716C30.9691 26.5716 31.8191 26.7716 32.7391 26.7716ZM43.7025 13.9616H46.5825V28.9316H43.7025V13.9616ZM51.6525 16.5116C50.6125 16.5116 49.7225 16.7516 48.9825 17.2316C48.2625 17.7116 47.6825 18.3016 47.2425 19.0016C46.8225 19.7016 46.5425 20.3716 46.4025 21.0116L46.3725 19.3016C46.3925 19.1016 46.4425 18.7916 46.5225 18.3716C46.6225 17.9316 46.7925 17.4416 47.0325 16.9016C47.2725 16.3616 47.5925 15.8516 47.9925 15.3716C48.3925 14.8716 48.8925 14.4616 49.4925 14.1416C50.0925 13.8216 50.8125 13.6616 51.6525 13.6616V16.5116ZM53.2287 13.9616H62.9187V16.4516H53.2287V13.9616ZM56.6487 10.0016H59.4987V28.9316H56.6487V10.0016ZM65.9459 7.96164H68.8259V28.9316H65.9459V7.96164ZM76.3908 7.78164V10.8716H72.8208V7.78164H76.3908ZM73.1808 13.9616H76.0308V28.9316H73.1808V13.9616ZM86.1192 26.5916C84.8792 26.5916 83.7392 26.3416 82.6992 25.8416C81.6592 25.3416 80.8292 24.6116 80.2092 23.6516C79.6092 22.6916 79.3092 21.5316 79.3092 20.1716C79.3092 18.8316 79.6092 17.6816 80.2092 16.7216C80.8092 15.7416 81.6192 14.9916 82.6392 14.4716C83.6792 13.9316 84.8392 13.6616 86.1192 13.6616C86.4992 13.6616 86.8592 13.6916 87.1992 13.7516C87.5392 13.7916 87.8692 13.8616 88.1892 13.9616H94.7292V16.6616C93.8292 16.6616 92.9192 16.5116 91.9992 16.2116C91.0992 15.9116 90.3092 15.5916 89.6292 15.2516L89.5392 15.1016C90.2192 15.4616 90.8092 15.9016 91.3092 16.4216C91.8092 16.9216 92.1892 17.4916 92.4492 18.1316C92.7292 18.7516 92.8692 19.4516 92.8692 20.2316C92.8692 21.5516 92.5692 22.6916 91.9692 23.6516C91.3892 24.6116 90.5792 25.3416 89.5392 25.8416C88.5192 26.3416 87.3792 26.5916 86.1192 26.5916ZM90.7092 34.9916V34.3016C90.7092 33.2816 90.4292 32.5516 89.8692 32.1116C89.3092 31.6716 88.4892 31.4516 87.4092 31.4516H83.8992C83.1592 31.4516 82.5292 31.3916 82.0092 31.2716C81.4892 31.1516 81.0592 30.9716 80.7192 30.7316C80.3792 30.5116 80.1292 30.2316 79.9692 29.8916C79.8092 29.5716 79.7292 29.2116 79.7292 28.8116C79.7292 28.0316 79.9692 27.4416 80.4492 27.0416C80.9292 26.6416 81.5392 26.3916 82.2792 26.2916C83.0192 26.1716 83.7692 26.1616 84.5292 26.2616L86.1192 26.5916C84.9792 26.6516 84.1092 26.7616 83.5092 26.9216C82.9092 27.0816 82.6092 27.4216 82.6092 27.9416C82.6092 28.2416 82.7292 28.4816 82.9692 28.6616C83.2092 28.8416 83.5492 28.9316 83.9892 28.9316H87.6492C88.7892 28.9316 89.7992 29.0716 90.6792 29.3516C91.5792 29.6516 92.2792 30.1416 92.7792 30.8216C93.2992 31.5216 93.5592 32.4716 93.5592 33.6716V34.9916H90.7092ZM86.1192 24.1616C86.8392 24.1616 87.4892 24.0116 88.0692 23.7116C88.6692 23.3916 89.1492 22.9416 89.5092 22.3616C89.8692 21.7616 90.0492 21.0416 90.0492 20.2016C90.0492 19.3416 89.8692 18.6116 89.5092 18.0116C89.1692 17.3916 88.6992 16.9316 88.0992 16.6316C87.4992 16.3116 86.8392 16.1516 86.1192 16.1516C85.3992 16.1516 84.7292 16.3116 84.1092 16.6316C83.5092 16.9316 83.0292 17.3816 82.6692 17.9816C82.3092 18.5816 82.1292 19.3216 82.1292 20.2016C82.1292 21.0416 82.3092 21.7616 82.6692 22.3616C83.0292 22.9416 83.5092 23.3916 84.1092 23.7116C84.7092 24.0116 85.3792 24.1616 86.1192 24.1616ZM109.072 28.9316V19.9016C109.072 19.1016 108.942 18.4416 108.682 17.9216C108.422 17.4016 108.032 17.0116 107.512 16.7516C106.992 16.4716 106.332 16.3316 105.532 16.3316C104.652 16.3316 103.842 16.5416 103.102 16.9616C102.382 17.3616 101.792 17.9116 101.332 18.6116C100.872 19.2916 100.592 20.0616 100.492 20.9216L100.462 19.2116C100.562 18.4316 100.772 17.7016 101.092 17.0216C101.432 16.3416 101.852 15.7516 102.352 15.2516C102.872 14.7516 103.472 14.3616 104.152 14.0816C104.832 13.8016 105.572 13.6616 106.372 13.6616C107.212 13.6616 107.972 13.7816 108.652 14.0216C109.332 14.2416 109.912 14.5916 110.392 15.0716C110.892 15.5316 111.272 16.1016 111.532 16.7816C111.792 17.4416 111.922 18.2016 111.922 19.0616V28.9316H109.072ZM97.8223 28.9316V7.96164H100.672V28.9316H97.8223ZM114.664 13.9616H124.354V16.4516H114.664V13.9616ZM118.084 10.0016H120.934V28.9316H118.084V10.0016Z" fill="white"/>
<rect x="7.9082" y="32.8696" width="65.9557" height="2.42606" fill="white"/>
<rect x="95.8789" y="32.8164" width="26.3823" height="2.60814" fill="white"/>
</svg>
