<svg width="175" height="53" viewBox="0 0 175 53" fill="none" xmlns="http://www.w3.org/2000/svg">
<path d="M1.3125 15.0293C1.3125 13.3757 1.77474 11.9889 2.69922 10.8691C3.6237 9.74935 4.83464 9.18945 6.33203 9.18945C7.84245 9.18945 9.05339 9.75586 9.96484 10.8887C10.8893 12.0085 11.3516 13.3887 11.3516 15.0293C11.3516 16.6569 10.8893 18.0371 9.96484 19.1699C9.05339 20.2897 7.84245 20.8496 6.33203 20.8496C4.83464 20.8496 3.6237 20.2897 2.69922 19.1699C1.77474 18.0501 1.3125 16.6699 1.3125 15.0293ZM2.36719 15.0098C2.36719 16.2858 2.71875 17.4186 3.42188 18.4082C4.13802 19.3848 5.10807 19.873 6.33203 19.873C7.55599 19.873 8.51953 19.3913 9.22266 18.4277C9.9388 17.4512 10.2969 16.3118 10.2969 15.0098C10.2969 13.6947 9.9388 12.5618 9.22266 11.6113C8.50651 10.6478 7.54297 10.166 6.33203 10.166C5.08203 10.166 4.10547 10.6608 3.40234 11.6504C2.71224 12.627 2.36719 13.7467 2.36719 15.0098ZM23.9602 9.52148H28.3352V10.4395H26.343V15.9473C26.343 17.1322 26.4667 17.9785 26.7141 18.4863C27.1568 19.4108 28.0292 19.873 29.3312 19.873C30.6854 19.873 31.5708 19.4629 31.9875 18.6426C32.2479 18.1738 32.3781 17.3405 32.3781 16.1426V10.4395H30.3859V9.52148H34.7609V10.4395H33.3547V16.1426C33.3547 17.679 33.1203 18.7728 32.6516 19.4238C32.3911 19.7884 31.9745 20.1204 31.4016 20.4199C30.8286 20.7064 30.1451 20.8496 29.3508 20.8496C27.8534 20.8496 26.7466 20.3418 26.0305 19.3262C25.5878 18.6882 25.3664 17.5618 25.3664 15.9473V10.4395H23.9602V9.52148ZM47.682 9.52148H57.057L57.3891 14.1309L56.4516 14.248L56.1781 10.4395H52.8578V19.5996H55.2211V20.5176H49.518V19.5996H51.8812V10.4395H48.5609L48.2875 14.248L47.35 14.1309L47.682 9.52148ZM70.3688 15.0293C70.3688 13.3757 70.831 11.9889 71.7555 10.8691C72.6799 9.74935 73.8909 9.18945 75.3883 9.18945C76.8987 9.18945 78.1096 9.75586 79.0211 10.8887C79.9456 12.0085 80.4078 13.3887 80.4078 15.0293C80.4078 16.6569 79.9456 18.0371 79.0211 19.1699C78.1096 20.2897 76.8987 20.8496 75.3883 20.8496C73.8909 20.8496 72.6799 20.2897 71.7555 19.1699C70.831 18.0501 70.3688 16.6699 70.3688 15.0293ZM71.4234 15.0098C71.4234 16.2858 71.775 17.4186 72.4781 18.4082C73.1943 19.3848 74.1643 19.873 75.3883 19.873C76.6122 19.873 77.5758 19.3913 78.2789 18.4277C78.9951 17.4512 79.3531 16.3118 79.3531 15.0098C79.3531 13.6947 78.9951 12.5618 78.2789 11.6113C77.5628 10.6478 76.5992 10.166 75.3883 10.166C74.1383 10.166 73.1617 10.6608 72.4586 11.6504C71.7685 12.627 71.4234 13.7467 71.4234 15.0098ZM93.9539 9.52148H103.114L103.212 13.0371H102.333L102.098 10.4395H96.5125V14.248H99.6766V12.8223H100.575V16.5723H99.6766V15.166H96.5125V19.5996H99.0516V20.5176H93.9539V19.5996H95.5359V10.4395H93.9539V9.52148ZM116.738 9.52148H126.113L126.445 14.1309L125.508 14.248L125.234 10.4395H121.914V19.5996H124.277V20.5176H118.574V19.5996H120.938V10.4395H117.617L117.344 14.248L116.406 14.1309L116.738 9.52148ZM139.347 9.52148H143.253V10.4395H141.788V14.3848H147.101V10.4395H145.636V9.52148H149.562V10.4395H148.077V19.5996H149.562V20.5176H145.636V19.5996H147.101V15.3027H141.788V19.5996H143.253V20.5176H139.347V19.5996H140.812V10.4395H139.347V9.52148ZM162.717 9.52148H171.995L172.073 13.1152H171.174L170.979 10.4395H165.354V14.248H168.518V12.8223H169.416V16.5723H168.518V15.166H165.354V19.5996H171.174L171.272 16.9238H172.17V20.5176H162.717V19.5996H164.377V10.4395H162.717V9.52148ZM9.49609 35.3066H10.375C10.2578 35.8145 10.1992 36.2832 10.1992 36.7129C10.1992 37.3118 10.2578 38.0866 10.375 39.0371L9.49609 39.1934C9.39193 38.4251 9.1901 37.8132 8.89062 37.3574C8.36979 36.5632 7.54297 36.166 6.41016 36.166C5.47266 36.166 4.74349 36.4069 4.22266 36.8887C3.71484 37.3704 3.46094 37.8978 3.46094 38.4707C3.46094 38.8874 3.55859 39.2389 3.75391 39.5254C3.96224 39.8118 4.2487 40.0267 4.61328 40.1699C4.99089 40.3001 5.29688 40.3913 5.53125 40.4434C5.76562 40.4824 6.0651 40.5215 6.42969 40.5605C7.25 40.6517 7.84896 40.7428 8.22656 40.834C8.61719 40.9121 8.96875 41.0553 9.28125 41.2637C10.0885 41.8105 10.4922 42.5658 10.4922 43.5293C10.4922 44.584 10.0885 45.4043 9.28125 45.9902C8.47396 46.5632 7.54297 46.8496 6.48828 46.8496C5.42057 46.8496 4.52865 46.5501 3.8125 45.9512C3.76042 45.8991 3.70833 45.873 3.65625 45.873C3.59115 45.873 3.52604 45.9251 3.46094 46.0293C3.40885 46.1855 3.35026 46.4785 3.28516 46.9082H2.40625C2.52344 46.3483 2.58203 45.7689 2.58203 45.1699C2.58203 44.8835 2.52344 44.1934 2.40625 43.0996H3.28516C3.44141 43.8809 3.66276 44.4603 3.94922 44.8379C4.47005 45.528 5.27083 45.873 6.35156 45.873C7.43229 45.873 8.21354 45.6452 8.69531 45.1895C9.1901 44.7337 9.4375 44.2064 9.4375 43.6074C9.4375 43.2819 9.3724 43.002 9.24219 42.7676C9.11198 42.5202 8.95573 42.3314 8.77344 42.2012C8.60417 42.0579 8.3763 41.9408 8.08984 41.8496C7.81641 41.7585 7.58854 41.6999 7.40625 41.6738C7.22396 41.6478 6.99609 41.6217 6.72266 41.5957C6.27995 41.5566 5.92188 41.5176 5.64844 41.4785C5.38802 41.4395 5.02344 41.3483 4.55469 41.2051C4.09896 41.0618 3.73438 40.8926 3.46094 40.6973C3.1875 40.502 2.9401 40.222 2.71875 39.8574C2.51042 39.4798 2.40625 39.0436 2.40625 38.5488C2.40625 37.6374 2.77734 36.8496 3.51953 36.1855C4.27474 35.5215 5.19922 35.1895 6.29297 35.1895C7.23047 35.1895 8.03776 35.4564 8.71484 35.9902C8.96224 36.1725 9.11198 36.2637 9.16406 36.2637C9.24219 36.2637 9.29427 36.2311 9.32031 36.166C9.34635 36.1009 9.39193 35.8991 9.45703 35.5605C9.48307 35.4564 9.49609 35.3717 9.49609 35.3066ZM25.6984 35.5215H29.8977L34.0187 45.5996H35.0148V46.5176H31.0109V45.5996H33.0031L31.8898 42.8848H26.7922L25.6984 45.5996H27.6906V46.5176H23.6867V45.5996H24.7219L28.4914 36.4395H25.6984V35.5215ZM31.5578 42.0254L29.3508 36.6738L27.1437 42.0254H31.5578ZM47.057 35.5215H50.3969L55.5336 45.6973H55.8852V36.4395H53.6977V35.5215H58.0531V36.4395H56.7836V46.7715H55.0453L49.8109 36.4395H49.4789V45.5996H51.6859V46.5176H47.057V45.5996H48.5805V36.4395H47.057V35.5215ZM70.193 35.5215H75.0758C76.0523 35.5215 76.8401 35.6126 77.4391 35.7949C78.038 35.9772 78.5849 36.3743 79.0797 36.9863C79.887 37.9889 80.2906 39.265 80.2906 40.8145C80.2906 42.8327 79.7503 44.3561 78.6695 45.3848C77.8753 46.14 76.6513 46.5176 74.9977 46.5176H70.193V45.5996H71.7359V36.4395H70.193V35.5215ZM75.0953 36.4395H72.7125V45.5996H74.9977C76.3258 45.5996 77.3023 45.2936 77.9273 44.6816C78.7997 43.8092 79.2359 42.5397 79.2359 40.873C79.2359 39.61 78.9299 38.5553 78.318 37.709C77.9404 37.1751 77.5172 36.8301 77.0484 36.6738C76.5797 36.5176 75.9286 36.4395 75.0953 36.4395ZM117.168 35.5215H122.5C123.763 35.5215 124.701 35.7949 125.312 36.3418C125.924 36.8887 126.23 37.5592 126.23 38.3535C126.23 39.4342 125.716 40.2415 124.688 40.7754C126.172 41.2181 126.914 42.1296 126.914 43.5098C126.914 44.0436 126.784 44.5319 126.523 44.9746C126.276 45.4173 125.944 45.7493 125.527 45.9707C125.111 46.1921 124.694 46.3418 124.277 46.4199C123.861 46.485 123.21 46.5176 122.324 46.5176H117.168V45.5996H118.789V36.4395H117.168V35.5215ZM122.461 36.4395H119.766V40.3457H122.363C122.962 40.3457 123.47 40.2741 123.887 40.1309C124.303 39.9746 124.596 39.7793 124.766 39.5449C124.935 39.3105 125.052 39.0957 125.117 38.9004C125.182 38.7051 125.215 38.5098 125.215 38.3145C125.215 37.8848 125.098 37.5267 124.863 37.2402C124.642 36.9538 124.342 36.765 123.965 36.6738C123.587 36.5697 123.294 36.5046 123.086 36.4785C122.891 36.4525 122.682 36.4395 122.461 36.4395ZM122.207 41.2637H119.766V45.5996H122.285C122.611 45.5996 122.865 45.5996 123.047 45.5996C123.229 45.5866 123.483 45.5605 123.809 45.5215C124.147 45.4824 124.414 45.4238 124.609 45.3457C124.818 45.2546 125.033 45.1374 125.254 44.9941C125.475 44.8379 125.638 44.6361 125.742 44.3887C125.846 44.1413 125.898 43.8483 125.898 43.5098C125.898 42.7415 125.566 42.1751 124.902 41.8105C124.238 41.446 123.34 41.2637 122.207 41.2637ZM140.148 41.0293C140.148 39.3757 140.61 37.9889 141.534 36.8691C142.459 35.7493 143.67 35.1895 145.167 35.1895C146.678 35.1895 147.889 35.7559 148.8 36.8887C149.724 38.0085 150.187 39.3887 150.187 41.0293C150.187 42.6569 149.724 44.0371 148.8 45.1699C147.889 46.2897 146.678 46.8496 145.167 46.8496C143.67 46.8496 142.459 46.2897 141.534 45.1699C140.61 44.0501 140.148 42.6699 140.148 41.0293ZM141.202 41.0098C141.202 42.2858 141.554 43.4186 142.257 44.4082C142.973 45.3848 143.943 45.873 145.167 45.873C146.391 45.873 147.355 45.3913 148.058 44.4277C148.774 43.4512 149.132 42.3118 149.132 41.0098C149.132 39.6947 148.774 38.5618 148.058 37.6113C147.342 36.6478 146.378 36.166 145.167 36.166C143.917 36.166 142.941 36.6608 142.238 37.6504C141.547 38.627 141.202 39.7467 141.202 41.0098ZM163.342 35.5215H167.131V36.4395H165.53L168.205 40.0137L170.94 36.4395H169.455V35.5215H173.03V36.4395H172.034L168.752 40.7363L172.385 45.5996H173.401V46.5176H169.455V45.5996H171.213L168.205 41.459L165.061 45.5996H167.131V46.5176H162.971V45.5996H163.967L167.659 40.7363L164.377 36.4395H163.342V35.5215Z" fill="#030211"/>
<rect x="93.6982" y="35.7305" width="11.0043" height="9.03674" stroke="black"/>
<rect x="95.2197" y="37.2734" width="7.97269" height="5.96338" fill="#030211"/>
</svg>
