<svg width="189" height="48" viewBox="0 0 189 48" fill="none" xmlns="http://www.w3.org/2000/svg">
<path d="M5.50937 37.0176H15.5494C17.336 37.0176 18.8427 36.7909 20.0694 36.3376C21.296 35.8576 22.2827 35.2442 23.0294 34.4976C23.776 33.7509 24.3094 32.9109 24.6294 31.9776C24.976 31.0176 25.1494 30.0576 25.1494 29.0976C25.1494 27.5776 24.816 26.3642 24.1494 25.4576C23.5094 24.5509 22.736 23.8576 21.8294 23.3776C20.9227 22.8976 19.9894 22.5776 19.0294 22.4176C18.0694 22.2576 17.296 22.1642 16.7094 22.1376V21.9776C17.6427 21.9776 18.5227 21.8042 19.3494 21.4576C20.176 21.0842 20.896 20.6176 21.5094 20.0576C22.1494 19.4709 22.656 18.8042 23.0294 18.0576C23.4027 17.2842 23.5894 16.4709 23.5894 15.6176C23.5894 14.8709 23.4294 14.1109 23.1094 13.3376C22.7894 12.5642 22.296 11.8576 21.6294 11.2176C20.9894 10.5776 20.1494 10.0576 19.1094 9.65758C18.096 9.23091 16.896 9.01758 15.5094 9.01758H5.50937V37.0176ZM9.14937 35.2576V23.0176H13.5494C14.856 23.0176 15.9894 23.1909 16.9494 23.5376C17.9094 23.8842 18.696 24.3509 19.3094 24.9376C19.9494 25.5242 20.416 26.2042 20.7094 26.9776C21.0294 27.7509 21.1894 28.5642 21.1894 29.4176C21.1894 30.3509 21.016 31.1776 20.6694 31.8976C20.3494 32.6176 19.9094 33.2309 19.3494 33.7376C18.7894 34.2442 18.1227 34.6309 17.3494 34.8976C16.6027 35.1376 15.8027 35.2576 14.9494 35.2576H9.14937ZM9.14937 21.2576V10.7776H14.0294C15.0694 10.7776 15.9494 10.9242 16.6694 11.2176C17.416 11.5109 18.016 11.8976 18.4694 12.3776C18.9494 12.8576 19.296 13.4042 19.5094 14.0176C19.7227 14.6309 19.8294 15.2442 19.8294 15.8576C19.8294 16.6309 19.6694 17.3509 19.3494 18.0176C19.056 18.6842 18.6294 19.2576 18.0694 19.7376C17.536 20.2176 16.9094 20.5909 16.1894 20.8576C15.496 21.1242 14.7494 21.2576 13.9494 21.2576H9.14937ZM54.5547 9.01758V37.0176H58.1947V24.6576H59.9547C60.7014 24.6576 61.3147 24.7242 61.7947 24.8576C62.3014 24.9909 62.7547 25.2176 63.1547 25.5376C63.5547 25.8576 63.928 26.2709 64.2747 26.7776C64.6214 27.2842 65.0347 27.9109 65.5147 28.6576L68.6747 33.3376C69.0747 33.9509 69.4614 34.5109 69.8347 35.0176C70.2347 35.5242 70.6614 35.9642 71.1147 36.3376C71.568 36.6842 72.0747 36.9642 72.6347 37.1776C73.2214 37.3909 73.9147 37.4976 74.7147 37.4976C75.3014 37.4976 75.7814 37.4709 76.1547 37.4176C76.528 37.3642 76.9014 37.2309 77.2747 37.0176V35.5376C77.1414 35.5642 77.008 35.5909 76.8747 35.6176C76.7414 35.6176 76.608 35.6176 76.4747 35.6176C75.9147 35.6176 75.4214 35.5376 74.9947 35.3776C74.568 35.2176 74.168 34.9909 73.7947 34.6976C73.4214 34.3776 73.0614 34.0042 72.7147 33.5776C72.368 33.1242 72.008 32.6176 71.6347 32.0576C70.5147 30.4309 69.648 29.1376 69.0347 28.1776C68.4214 27.1909 67.928 26.4309 67.5547 25.8976C67.208 25.3642 66.9147 24.9776 66.6747 24.7376C66.4614 24.4976 66.1947 24.2976 65.8747 24.1376L65.4747 23.9376V23.7776C66.7547 23.6976 67.848 23.4176 68.7547 22.9376C69.688 22.4576 70.448 21.8576 71.0347 21.1376C71.6214 20.4176 72.048 19.6442 72.3147 18.8176C72.5814 17.9642 72.7147 17.1376 72.7147 16.3376C72.7147 15.6176 72.568 14.8309 72.2747 13.9776C72.008 13.1242 71.528 12.3376 70.8347 11.6176C70.168 10.8709 69.248 10.2576 68.0747 9.77758C66.9014 9.27091 65.4214 9.01758 63.6347 9.01758H54.5547ZM58.1947 10.7776H62.2347C63.248 10.7776 64.1547 10.9242 64.9547 11.2176C65.7814 11.5109 66.488 11.9242 67.0747 12.4576C67.6614 12.9642 68.1014 13.5776 68.3947 14.2976C68.7147 15.0176 68.8747 15.8042 68.8747 16.6576C68.8747 17.3776 68.728 18.1109 68.4347 18.8576C68.168 19.5776 67.7547 20.2442 67.1947 20.8576C66.6347 21.4442 65.9414 21.9242 65.1147 22.2976C64.3147 22.6709 63.3814 22.8576 62.3147 22.8576H58.1947V10.7776ZM128.426 9.01758V30.4176H128.266L106.066 8.53758H105.866V37.0176H107.706V15.6176H107.866L130.066 37.4976H130.266V9.01758H128.426ZM162.85 37.0176V9.01758H172.05C174.263 9.01758 176.29 9.37758 178.13 10.0976C179.97 10.7909 181.543 11.7642 182.85 13.0176C184.183 14.2442 185.21 15.7109 185.93 17.4176C186.677 19.1242 187.05 20.9642 187.05 22.9376C187.05 24.9909 186.663 26.8842 185.89 28.6176C185.143 30.3242 184.103 31.8042 182.77 33.0576C181.463 34.3109 179.93 35.2842 178.17 35.9776C176.41 36.6709 174.53 37.0176 172.53 37.0176H162.85ZM166.49 35.2576H170.89C173.077 35.2576 174.93 34.8976 176.45 34.1776C177.997 33.4309 179.263 32.4709 180.25 31.2976C181.237 30.1242 181.957 28.8176 182.41 27.3776C182.863 25.9109 183.09 24.4576 183.09 23.0176C183.09 21.4176 182.823 19.8842 182.29 18.4176C181.757 16.9242 180.97 15.6176 179.93 14.4976C178.917 13.3509 177.65 12.4442 176.13 11.7776C174.61 11.1109 172.863 10.7776 170.89 10.7776H166.49V35.2576Z" fill="#030211"/>
</svg>
