<svg width="20" height="19" viewBox="0 0 20 19" fill="none" xmlns="http://www.w3.org/2000/svg">
<path d="M19.2549 8.98162C19.4211 9.14943 19.5144 9.37607 19.5144 9.61226C19.5144 9.84846 19.4211 10.0751 19.2549 10.2429L11.2888 18.209C11.1189 18.3714 10.8932 18.4625 10.6582 18.4635C10.5407 18.463 10.4244 18.4404 10.3152 18.3971C10.1541 18.3294 10.0167 18.2155 9.9202 18.0698C9.82372 17.9241 9.77253 17.7531 9.77307 17.5783V10.4974H1.80699C1.57225 10.4974 1.34711 10.4041 1.18112 10.2381C1.01513 10.0721 0.921875 9.84701 0.921875 9.61226C0.921875 9.37752 1.01513 9.15238 1.18112 8.98639C1.34711 8.8204 1.57225 8.72714 1.80699 8.72714H9.77307V1.64618C9.77253 1.47144 9.82372 1.30044 9.9202 1.15474C10.0167 1.00904 10.1541 0.895161 10.3152 0.827448C10.4787 0.763679 10.6569 0.747502 10.8292 0.780787C11.0015 0.814073 11.1609 0.895461 11.2888 1.01554L19.2549 8.98162Z" fill="white"/>
</svg>
