<svg width="186" height="49" viewBox="0 0 186 49" fill="none" xmlns="http://www.w3.org/2000/svg">
<path d="M62.5742 13.1702V17.0276C62.5742 17.8609 62.6654 18.3785 62.8477 18.5803C63.0951 18.8668 63.4694 19.01 63.9707 19.01H64.4785V19.3713H58.8047V19.01H59.3027C59.8626 19.01 60.263 18.8277 60.5039 18.4631C60.6341 18.2613 60.6992 17.7828 60.6992 17.0276V8.4729C60.6992 7.63957 60.6113 7.12199 60.4355 6.92017C60.1816 6.63371 59.804 6.49048 59.3027 6.49048H58.8047V6.12915H63.6582C64.8431 6.12915 65.7773 6.25285 66.4609 6.50024C67.1445 6.74113 67.7207 7.15129 68.1895 7.73071C68.6582 8.31014 68.8926 8.99699 68.8926 9.79126C68.8926 10.872 68.5345 11.7509 67.8184 12.428C67.1087 13.1051 66.1029 13.4436 64.8008 13.4436C64.4818 13.4436 64.1367 13.4208 63.7656 13.3752C63.3945 13.3297 62.9974 13.2613 62.5742 13.1702ZM62.5742 12.6135C62.9193 12.6786 63.2253 12.7275 63.4922 12.76C63.7591 12.7926 63.987 12.8088 64.1758 12.8088C64.8529 12.8088 65.4355 12.5484 65.9238 12.0276C66.4186 11.5002 66.666 10.8199 66.666 9.98657C66.666 9.41366 66.5488 8.88306 66.3145 8.39478C66.0801 7.89998 65.748 7.53215 65.3184 7.29126C64.8887 7.04386 64.4004 6.92017 63.8535 6.92017C63.5215 6.92017 63.0951 6.98201 62.5742 7.10571V12.6135ZM88.2199 5.82642C89.9387 5.82642 91.4263 6.48071 92.6828 7.78931C93.9458 9.09139 94.5773 10.719 94.5773 12.6721C94.5773 14.6838 93.9426 16.3538 92.673 17.6819C91.4035 19.01 89.8671 19.6741 88.0637 19.6741C86.2408 19.6741 84.7076 19.0263 83.4641 17.7307C82.2271 16.4351 81.6086 14.7587 81.6086 12.7014C81.6086 10.5986 82.3247 8.88306 83.757 7.55493C85.0005 6.40259 86.4882 5.82642 88.2199 5.82642ZM88.0344 6.53931C86.8495 6.53931 85.899 6.97876 85.1828 7.85767C84.2909 8.95142 83.8449 10.553 83.8449 12.6624C83.8449 14.8238 84.3072 16.4872 85.2316 17.6526C85.9413 18.538 86.8788 18.9807 88.0441 18.9807C89.2876 18.9807 90.313 18.4957 91.1203 17.5256C91.9341 16.5556 92.341 15.0256 92.341 12.9358C92.341 10.6702 91.8951 8.98071 91.0031 7.86743C90.287 6.98201 89.2974 6.53931 88.0344 6.53931ZM112.83 19.01V19.3713H107.157V19.01H107.625C108.172 19.01 108.569 18.8505 108.817 18.5315C108.973 18.3232 109.051 17.8219 109.051 17.0276V8.4729C109.051 7.80233 109.009 7.35962 108.924 7.14478C108.859 6.98201 108.726 6.84204 108.524 6.72485C108.237 6.5686 107.938 6.49048 107.625 6.49048H107.157V6.12915H112.83V6.49048H112.352C111.812 6.49048 111.418 6.64998 111.17 6.96899C111.008 7.17733 110.926 7.67863 110.926 8.4729V17.0276C110.926 17.6982 110.968 18.1409 111.053 18.3557C111.118 18.5185 111.255 18.6584 111.463 18.7756C111.743 18.9319 112.039 19.01 112.352 19.01H112.83ZM124.355 6.12915H127.949L136.045 16.0608V8.42407C136.045 7.61027 135.953 7.10246 135.771 6.90063C135.53 6.6272 135.149 6.49048 134.629 6.49048H134.17V6.12915H138.779V6.49048H138.31C137.75 6.49048 137.353 6.65975 137.119 6.99829C136.976 7.20662 136.904 7.68188 136.904 8.42407V19.5862H136.552L127.822 8.92212V17.0764C127.822 17.8902 127.91 18.398 128.086 18.5999C128.333 18.8733 128.714 19.01 129.228 19.01H129.697V19.3713H125.088V19.01H125.546C126.113 19.01 126.513 18.8407 126.748 18.5022C126.891 18.2939 126.963 17.8186 126.963 17.0764V7.86743C126.578 7.41821 126.285 7.12199 126.084 6.97876C125.888 6.83553 125.599 6.70207 125.214 6.57837C125.026 6.51978 124.739 6.49048 124.355 6.49048V6.12915ZM161.944 6.12915L162.091 9.23462H161.72C161.648 8.68774 161.55 8.29712 161.427 8.06274C161.225 7.68514 160.955 7.40845 160.616 7.23267C160.284 7.05037 159.845 6.95923 159.298 6.95923H157.432V17.0764C157.432 17.8902 157.52 18.398 157.696 18.5999C157.943 18.8733 158.324 19.01 158.839 19.01H159.298V19.3713H153.682V19.01H154.151C154.711 19.01 155.108 18.8407 155.343 18.5022C155.486 18.2939 155.557 17.8186 155.557 17.0764V6.95923H153.966C153.347 6.95923 152.908 7.0048 152.647 7.09595C152.309 7.21965 152.019 7.45728 151.778 7.80884C151.537 8.1604 151.394 8.63566 151.348 9.23462H150.977L151.134 6.12915H161.944ZM183.068 5.82642V10.4065H182.707C182.59 9.52759 182.378 8.82772 182.072 8.30688C181.773 7.78605 181.343 7.37264 180.783 7.06665C180.223 6.76066 179.644 6.60767 179.045 6.60767C178.368 6.60767 177.808 6.816 177.365 7.23267C176.923 7.64282 176.701 8.11157 176.701 8.63892C176.701 9.04256 176.841 9.4104 177.121 9.74243C177.525 10.2307 178.485 10.8818 180.002 11.6956C181.239 12.3596 182.082 12.8707 182.531 13.2288C182.987 13.5803 183.335 13.997 183.576 14.4788C183.824 14.9605 183.947 15.4651 183.947 15.9924C183.947 16.995 183.557 17.8609 182.775 18.5901C182.001 19.3127 181.001 19.6741 179.777 19.6741C179.393 19.6741 179.032 19.6448 178.693 19.5862C178.492 19.5536 178.072 19.4364 177.434 19.2346C176.802 19.0263 176.402 18.9221 176.232 18.9221C176.07 18.9221 175.939 18.9709 175.842 19.0686C175.751 19.1663 175.682 19.3681 175.637 19.6741H175.275V15.1331H175.637C175.806 16.0836 176.034 16.7965 176.32 17.2717C176.607 17.7405 177.043 18.1311 177.629 18.4436C178.221 18.7561 178.869 18.9124 179.572 18.9124C180.386 18.9124 181.027 18.6975 181.496 18.2678C181.971 17.8381 182.209 17.3303 182.209 16.7444C182.209 16.4189 182.118 16.0901 181.936 15.7581C181.76 15.426 181.483 15.1168 181.105 14.8303C180.852 14.635 180.158 14.2216 179.025 13.5901C177.893 12.9521 177.085 12.4443 176.604 12.0667C176.128 11.689 175.767 11.2724 175.52 10.8167C175.272 10.3609 175.148 9.85962 175.148 9.31274C175.148 8.36222 175.513 7.54517 176.242 6.86157C176.971 6.17147 177.899 5.82642 179.025 5.82642C179.729 5.82642 180.474 5.99894 181.262 6.34399C181.626 6.50675 181.883 6.58813 182.033 6.58813C182.202 6.58813 182.339 6.53931 182.443 6.44165C182.554 6.33748 182.642 6.13241 182.707 5.82642H183.068ZM65.7871 28.8264C67.5059 28.8264 68.9935 29.4807 70.25 30.7893C71.513 32.0914 72.1445 33.719 72.1445 35.6721C72.1445 37.6838 71.5098 39.3538 70.2402 40.6819C68.9707 42.01 67.4342 42.6741 65.6309 42.6741C63.8079 42.6741 62.2747 42.0263 61.0312 40.7307C59.7943 39.4351 59.1758 37.7587 59.1758 35.7014C59.1758 33.5986 59.8919 31.8831 61.3242 30.5549C62.5677 29.4026 64.0553 28.8264 65.7871 28.8264ZM65.6016 29.5393C64.4167 29.5393 63.4661 29.9788 62.75 30.8577C61.8581 31.9514 61.4121 33.553 61.4121 35.6624C61.4121 37.8238 61.8743 39.4872 62.7988 40.6526C63.5085 41.538 64.446 41.9807 65.6113 41.9807C66.8548 41.9807 67.8802 41.4957 68.6875 40.5256C69.5013 39.5556 69.9082 38.0256 69.9082 35.9358C69.9082 33.6702 69.4622 31.9807 68.5703 30.8674C67.8542 29.982 66.8646 29.5393 65.6016 29.5393ZM83.9621 29.1292H87.5559L95.6516 39.0608V31.4241C95.6516 30.6103 95.5604 30.1025 95.3781 29.9006C95.1372 29.6272 94.7564 29.4905 94.2355 29.4905H93.7766V29.1292H98.3859V29.4905H97.9172C97.3573 29.4905 96.9602 29.6597 96.7258 29.9983C96.5826 30.2066 96.5109 30.6819 96.5109 31.4241V42.5862H96.1594L87.4289 31.9221V40.0764C87.4289 40.8902 87.5168 41.398 87.6926 41.5999C87.94 41.8733 88.3208 42.01 88.8352 42.01H89.3039V42.3713H84.6945V42.01H85.1535C85.7199 42.01 86.1203 41.8407 86.3547 41.5022C86.4979 41.2939 86.5695 40.8186 86.5695 40.0764V30.8674C86.1854 30.4182 85.8924 30.122 85.6906 29.9788C85.4953 29.8355 85.2056 29.7021 84.8215 29.5784C84.6327 29.5198 84.3462 29.4905 83.9621 29.4905V29.1292ZM114.159 29.8518V35.0862H117.069C117.824 35.0862 118.329 34.9722 118.582 34.7444C118.921 34.4449 119.11 33.9176 119.149 33.1624H119.51V37.7717H119.149C119.058 37.1272 118.967 36.7138 118.875 36.5315C118.758 36.3036 118.566 36.1246 118.299 35.9944C118.032 35.8642 117.622 35.7991 117.069 35.7991H114.159V40.1643C114.159 40.7502 114.185 41.1083 114.237 41.2385C114.289 41.3622 114.38 41.4631 114.51 41.5413C114.64 41.6129 114.888 41.6487 115.252 41.6487H117.498C118.247 41.6487 118.791 41.5966 119.129 41.4924C119.468 41.3883 119.793 41.1832 120.106 40.8772C120.51 40.4736 120.923 39.8648 121.346 39.051H121.737L120.594 42.3713H110.389V42.01H110.858C111.17 42.01 111.467 41.9351 111.746 41.7854C111.955 41.6812 112.095 41.525 112.166 41.3167C112.245 41.1083 112.284 40.6819 112.284 40.0374V31.4338C112.284 30.594 112.199 30.0764 112.03 29.8811C111.795 29.6207 111.405 29.4905 110.858 29.4905H110.389V29.1292H120.594L120.741 32.0295H120.36C120.223 31.3329 120.07 30.8544 119.901 30.594C119.738 30.3336 119.494 30.135 119.168 29.9983C118.908 29.9006 118.449 29.8518 117.791 29.8518H114.159Z" fill="#030211"/>
<path d="M5.91311 14.135L23.8962 1.4452L41.8794 14.135L43.8775 36.0538L23.8962 45.2827L3.91498 36.0538L5.91311 14.135Z" stroke="black"/>
<path d="M9.27664 16.0769L23.8962 5.76063L38.5158 16.0769L40.1402 33.896L23.8962 41.3988L7.65225 33.896L9.27664 16.0769Z" stroke="black"/>
<path d="M12.5908 17.9905L23.8966 10.0126L35.2024 17.9905L36.4586 31.7706L23.8966 37.5727L11.3346 31.7706L12.5908 17.9905Z" stroke="black"/>
<path d="M16.2664 20.1126L23.8966 14.7284L31.5268 20.1126L32.3745 29.4127L23.8966 33.3285L15.4186 29.4127L16.2664 20.1126Z" stroke="black"/>
<rect x="127.077" y="29.2649" width="57.5341" height="2.17102" fill="#030211"/>
<rect x="127.077" y="34.3313" width="57.5341" height="2.17102" fill="#030211"/>
<rect x="127.077" y="39.5188" width="57.5341" height="2.17102" fill="#030211"/>
</svg>
