<svg width="88" height="40" viewBox="0 0 88 40" fill="none" xmlns="http://www.w3.org/2000/svg">
<path d="M13.2699 0.453576H17.1759V39.0176H12.5259L4.52791 9.13358V39.0176H0.621914V0.453576H5.58191L13.2699 29.2836V0.453576ZM24.861 0.453576H31.185C34.4503 0.453576 36.083 2.08624 36.083 5.35158V34.1196C36.083 37.3849 34.4503 39.0176 31.185 39.0176H24.861C21.5957 39.0176 19.963 37.3849 19.963 34.1196V5.35158C19.963 2.08624 21.5957 0.453576 24.861 0.453576ZM31.867 33.4376V6.03358C31.867 5.20691 31.743 4.69024 31.495 4.48358C31.247 4.23558 30.7303 4.11158 29.945 4.11158H26.101C25.3157 4.11158 24.799 4.23558 24.551 4.48358C24.303 4.69024 24.179 5.20691 24.179 6.03358V33.4376C24.179 34.2642 24.303 34.8016 24.551 35.0496C24.799 35.2562 25.3157 35.3596 26.101 35.3596H29.945C30.7303 35.3596 31.247 35.2562 31.495 35.0496C31.743 34.8016 31.867 34.2642 31.867 33.4376ZM43.1108 22.8976V39.0176H38.8948V0.453576H50.1168C53.3821 0.453576 55.0148 2.08624 55.0148 5.35158V17.9996C55.0148 20.9342 53.7335 22.5462 51.1708 22.8356L56.9988 39.0176H52.4108L46.7688 22.8976H43.1108ZM43.1108 4.11158V19.2396H48.8768C49.7035 19.2396 50.2201 19.1362 50.4268 18.9296C50.6748 18.6816 50.7988 18.1442 50.7988 17.3176V6.03358C50.7988 5.20691 50.6748 4.69024 50.4268 4.48358C50.2201 4.23558 49.7035 4.11158 48.8768 4.11158H43.1108ZM71.2748 0.453576V4.11158H65.0748V39.0176H60.8588V4.11158H54.6588V0.453576H71.2748ZM75.8827 0.453576H82.2067C85.472 0.453576 87.1047 2.08624 87.1047 5.35158V34.1196C87.1047 37.3849 85.472 39.0176 82.2067 39.0176H75.8827C72.6173 39.0176 70.9847 37.3849 70.9847 34.1196V5.35158C70.9847 2.08624 72.6173 0.453576 75.8827 0.453576ZM82.8887 33.4376V6.03358C82.8887 5.20691 82.7647 4.69024 82.5167 4.48358C82.2687 4.23558 81.752 4.11158 80.9667 4.11158H77.1227C76.3373 4.11158 75.8207 4.23558 75.5727 4.48358C75.3247 4.69024 75.2007 5.20691 75.2007 6.03358V33.4376C75.2007 34.2642 75.3247 34.8016 75.5727 35.0496C75.8207 35.2562 76.3373 35.3596 77.1227 35.3596H80.9667C81.752 35.3596 82.2687 35.2562 82.5167 35.0496C82.7647 34.8016 82.8887 34.2642 82.8887 33.4376Z" fill="#030211"/>
</svg>
