<svg width="207" height="53" viewBox="0 0 207 53" fill="none" xmlns="http://www.w3.org/2000/svg">
<path d="M61.8919 17.1571H64.5919C64.6452 17.6104 64.8519 18.0238 65.2119 18.3971C65.5852 18.7571 66.0719 19.0438 66.6719 19.2571C67.2719 19.4571 67.9452 19.5571 68.6919 19.5571C69.3719 19.5571 69.9319 19.4838 70.3719 19.3371C70.8119 19.1904 71.1386 18.9838 71.3519 18.7171C71.5652 18.4504 71.6719 18.1304 71.6719 17.7571C71.6719 17.3971 71.5386 17.1238 71.2719 16.9371C71.0052 16.7371 70.5852 16.5771 70.0119 16.4571C69.4386 16.3238 68.6852 16.1904 67.7519 16.0571C67.0186 15.9504 66.3252 15.8038 65.6719 15.6171C65.0186 15.4171 64.4386 15.1638 63.9319 14.8571C63.4386 14.5504 63.0452 14.1771 62.7519 13.7371C62.4719 13.2838 62.3319 12.7504 62.3319 12.1371C62.3319 11.3771 62.5452 10.7104 62.9719 10.1371C63.4119 9.56376 64.0586 9.11709 64.9119 8.79709C65.7652 8.47709 66.8119 8.31709 68.0519 8.31709C69.9186 8.31709 71.3519 8.71709 72.3519 9.51709C73.3652 10.3038 73.8586 11.3904 73.8319 12.7771H71.2319C71.1786 11.9904 70.8452 11.4238 70.2319 11.0771C69.6319 10.7304 68.8719 10.5571 67.9519 10.5571C67.0986 10.5571 66.3919 10.6838 65.8319 10.9371C65.2852 11.1904 65.0119 11.6238 65.0119 12.2371C65.0119 12.4771 65.0786 12.6904 65.2119 12.8771C65.3452 13.0504 65.5719 13.2038 65.8919 13.3371C66.2119 13.4704 66.6452 13.5971 67.1919 13.7171C67.7386 13.8371 68.4186 13.9571 69.2319 14.0771C69.9919 14.1838 70.6786 14.3304 71.2919 14.5171C71.9186 14.6904 72.4519 14.9238 72.8919 15.2171C73.3452 15.4971 73.6919 15.8571 73.9319 16.2971C74.1719 16.7371 74.2919 17.2771 74.2919 17.9171C74.2919 18.7038 74.0852 19.3904 73.6719 19.9771C73.2719 20.5504 72.6452 20.9971 71.7919 21.3171C70.9519 21.6371 69.8586 21.7971 68.5119 21.7971C67.5519 21.7971 66.7052 21.6971 65.9719 21.4971C65.2386 21.2838 64.6052 21.0038 64.0719 20.6571C63.5386 20.3104 63.1052 19.9304 62.7719 19.5171C62.4386 19.1038 62.1986 18.6904 62.0519 18.2771C61.9186 17.8638 61.8652 17.4904 61.8919 17.1571ZM86.7986 8.57709H100.439V10.7971H86.7986V8.57709ZM92.2986 10.5171H94.9586V21.5171H92.2986V10.5171ZM125.552 15.7971V8.57709H128.212V16.0771C128.212 16.9304 128.086 17.6771 127.832 18.3171C127.592 18.9571 127.246 19.4971 126.792 19.9371C126.339 20.3771 125.806 20.7371 125.192 21.0171C124.592 21.2838 123.932 21.4771 123.212 21.5971C122.506 21.7171 121.759 21.7771 120.972 21.7771C120.159 21.7771 119.386 21.7171 118.652 21.5971C117.919 21.4771 117.246 21.2838 116.632 21.0171C116.032 20.7371 115.512 20.3771 115.072 19.9371C114.632 19.4971 114.286 18.9571 114.032 18.3171C113.792 17.6771 113.672 16.9304 113.672 16.0771V8.57709H116.332V15.7971C116.332 16.8104 116.532 17.5838 116.932 18.1171C117.332 18.6371 117.879 18.9971 118.572 19.1971C119.279 19.3838 120.079 19.4771 120.972 19.4771C121.839 19.4771 122.612 19.3838 123.292 19.1971C123.986 18.9971 124.532 18.6371 124.932 18.1171C125.346 17.5838 125.552 16.8104 125.552 15.7971ZM149.989 8.57709C151.443 8.57709 152.656 8.75042 153.629 9.09709C154.603 9.44376 155.376 9.91709 155.949 10.5171C156.536 11.1038 156.949 11.7838 157.189 12.5571C157.443 13.3304 157.569 14.1438 157.569 14.9971C157.569 15.8504 157.429 16.6704 157.149 17.4571C156.883 18.2438 156.449 18.9438 155.849 19.5571C155.263 20.1571 154.483 20.6371 153.509 20.9971C152.549 21.3438 151.376 21.5171 149.989 21.5171H142.589V8.57709H149.989ZM145.249 19.2371H149.929C150.889 19.2371 151.683 19.1238 152.309 18.8971C152.949 18.6571 153.456 18.3371 153.829 17.9371C154.203 17.5371 154.469 17.0838 154.629 16.5771C154.789 16.0704 154.869 15.5438 154.869 14.9971C154.869 14.4504 154.789 13.9304 154.629 13.4371C154.469 12.9438 154.203 12.5038 153.829 12.1171C153.456 11.7304 152.949 11.4238 152.309 11.1971C151.683 10.9704 150.889 10.8571 149.929 10.8571H145.249V19.2371ZM171.848 8.57709H174.508V21.5171H171.848V8.57709ZM196.952 21.7771C195.232 21.7771 193.759 21.5104 192.532 20.9771C191.319 20.4304 190.385 19.6571 189.732 18.6571C189.092 17.6571 188.772 16.4571 188.772 15.0571C188.772 13.6438 189.092 12.4371 189.732 11.4371C190.385 10.4371 191.319 9.67042 192.532 9.13709C193.759 8.59042 195.232 8.31709 196.952 8.31709C198.685 8.31709 200.159 8.59042 201.372 9.13709C202.585 9.67042 203.512 10.4371 204.152 11.4371C204.805 12.4371 205.132 13.6438 205.132 15.0571C205.132 16.4571 204.805 17.6571 204.152 18.6571C203.512 19.6571 202.585 20.4304 201.372 20.9771C200.159 21.5104 198.685 21.7771 196.952 21.7771ZM196.952 19.4771C198.019 19.4771 198.952 19.3171 199.752 18.9971C200.565 18.6771 201.199 18.1904 201.652 17.5371C202.119 16.8838 202.352 16.0571 202.352 15.0571C202.352 14.0571 202.119 13.2304 201.652 12.5771C201.199 11.9238 200.565 11.4371 199.752 11.1171C198.952 10.7838 198.019 10.6171 196.952 10.6171C195.899 10.6171 194.959 10.7838 194.132 11.1171C193.305 11.4371 192.659 11.9238 192.192 12.5771C191.725 13.2304 191.492 14.0571 191.492 15.0571C191.492 16.0571 191.725 16.8838 192.192 17.5371C192.659 18.1904 193.305 18.6771 194.132 18.9971C194.959 19.3171 195.899 19.4771 196.952 19.4771ZM70.1919 45.7771C68.9919 45.7771 67.9052 45.6371 66.9319 45.3571C65.9719 45.0771 65.1386 44.6571 64.4319 44.0971C63.7386 43.5371 63.2052 42.8438 62.8319 42.0171C62.4586 41.1904 62.2719 40.2371 62.2719 39.1571C62.2719 38.0638 62.4652 37.0971 62.8519 36.2571C63.2519 35.4038 63.8119 34.6838 64.5319 34.0971C65.2652 33.5104 66.1319 33.0704 67.1319 32.7771C68.1452 32.4704 69.2652 32.3171 70.4919 32.3171C71.9452 32.3171 73.1986 32.5238 74.2519 32.9371C75.3052 33.3371 76.1319 33.9038 76.7319 34.6371C77.3452 35.3704 77.6919 36.2438 77.7719 37.2571H75.2119C75.0386 36.7238 74.7519 36.2638 74.3519 35.8771C73.9652 35.4771 73.4519 35.1704 72.8119 34.9571C72.1719 34.7304 71.3986 34.6171 70.4919 34.6171C69.3319 34.6171 68.3386 34.8038 67.5119 35.1771C66.6986 35.5504 66.0786 36.0771 65.6519 36.7571C65.2252 37.4371 65.0119 38.2371 65.0119 39.1571C65.0119 40.0504 65.1986 40.8238 65.5719 41.4771C65.9452 42.1171 66.5186 42.6104 67.2919 42.9571C68.0786 43.3038 69.0786 43.4771 70.2919 43.4771C71.2252 43.4771 72.0452 43.3571 72.7519 43.1171C73.4719 42.8638 74.0719 42.5304 74.5519 42.1171C75.0319 41.6904 75.3719 41.2171 75.5719 40.6971L76.6119 40.3171C76.4386 42.0371 75.7852 43.3771 74.6519 44.3371C73.5319 45.2971 72.0452 45.7771 70.1919 45.7771ZM75.9319 45.5171C75.9319 45.1038 75.9586 44.6304 76.0119 44.0971C76.0652 43.5504 76.1319 43.0038 76.2119 42.4571C76.2919 41.8971 76.3652 41.3838 76.4319 40.9171H70.5119V39.2171H78.2319V45.5171H75.9319ZM96.1332 45.5171V32.5771H104.913C105.913 32.5771 106.78 32.7171 107.513 32.9971C108.26 33.2638 108.84 33.6904 109.253 34.2771C109.666 34.8504 109.873 35.5904 109.873 36.4971C109.873 37.1104 109.766 37.6304 109.553 38.0571C109.34 38.4838 109.04 38.8304 108.653 39.0971C108.28 39.3638 107.846 39.5704 107.353 39.7171C106.86 39.8504 106.333 39.9371 105.773 39.9771L105.493 39.8171C106.426 39.8304 107.193 39.9104 107.793 40.0571C108.393 40.1904 108.84 40.4438 109.133 40.8171C109.44 41.1771 109.593 41.7171 109.593 42.4371V45.5171H106.933V42.6171C106.933 42.1238 106.846 41.7438 106.673 41.4771C106.5 41.1971 106.186 41.0038 105.733 40.8971C105.293 40.7904 104.653 40.7371 103.813 40.7371H98.7932V45.5171H96.1332ZM98.7932 38.6571H104.913C105.66 38.6571 106.226 38.4771 106.613 38.1171C107.013 37.7571 107.213 37.2704 107.213 36.6571C107.213 36.0704 107.013 35.6238 106.613 35.3171C106.226 35.0104 105.66 34.8571 104.913 34.8571H98.7932V38.6571ZM130.417 40.1171V43.2971H140.397V45.5171H127.757V32.5771H140.377V34.7971H130.417V38.0171H138.577V40.1171H130.417ZM160.888 40.1171V43.2971H170.868V45.5171H158.228V32.5771H170.848V34.7971H160.888V38.0171H169.048V40.1171H160.888ZM201.819 42.8771L200.979 43.2171V32.5771H203.639V45.5171H200.979L190.519 35.2971L191.359 34.9571V45.5171H188.699V32.5771H191.359L201.819 42.8771Z" fill="#030211"/>
<path d="M26.5934 0.713379L28.0721 18.1316L35.419 2.26957L30.8511 19.1431L43.1801 6.75044L33.1166 21.0441L48.9406 13.6155L34.5953 23.6053L52.0057 22.0368L35.1088 26.5177L52.0057 30.9986L34.5953 29.4301L48.9406 39.4199L33.1166 31.9913L43.1801 46.285L30.8511 33.8923L35.419 50.7658L28.0721 34.9038L26.5934 52.322L25.1147 34.9038L17.7678 50.7658L22.3357 33.8923L10.0067 46.285L20.0702 31.9913L4.24619 39.4199L18.5915 29.4301L1.18109 30.9986L18.078 26.5177L1.18109 22.0368L18.5915 23.6053L4.24619 13.6155L20.0702 21.0441L10.0067 6.75044L22.3357 19.1431L17.7678 2.26957L25.1147 18.1316L26.5934 0.713379Z" fill="#030211"/>
</svg>
