<svg width="51" height="51" viewBox="0 0 51 51" fill="none" xmlns="http://www.w3.org/2000/svg">
<path d="M24.4557 1.04698C24.7838 0.190631 25.9953 0.190633 26.3234 1.04698L29.4306 9.15795C29.6667 9.77433 30.4247 9.99689 30.9566 9.60602L37.9557 4.46253C38.6946 3.91949 39.7138 4.57449 39.5268 5.47226L37.7557 13.9755C37.6211 14.6217 38.1384 15.2188 38.7972 15.1775L47.466 14.6345C48.3812 14.5772 48.8845 15.6792 48.2418 16.3334L42.1546 22.5292C41.692 23.0001 41.8045 23.782 42.381 24.1034L49.9672 28.3334C50.7681 28.7799 50.5957 29.9791 49.7014 30.182L41.2308 32.1033C40.587 32.2493 40.2589 32.9679 40.5701 33.55L44.6651 41.2098C45.0975 42.0185 44.3041 42.9341 43.4421 42.6213L35.2774 39.658C34.657 39.4328 33.9924 39.8599 33.9395 40.5179L33.2432 49.1757C33.1697 50.0898 32.0073 50.4311 31.4512 49.7019L26.1848 42.7948C25.7845 42.27 24.9946 42.27 24.5943 42.7948L19.3279 49.7019C18.7718 50.4311 17.6094 50.0898 17.5359 49.1757L16.8396 40.5179C16.7867 39.8599 16.1221 39.4328 15.5017 39.658L7.33702 42.6213C6.475 42.9341 5.68162 42.0185 6.11397 41.2098L10.209 33.55C10.5202 32.9679 10.1921 32.2493 9.54835 32.1033L1.07774 30.182C0.183414 29.9791 0.0109972 28.7799 0.811943 28.3334L8.39815 24.1034C8.97465 23.782 9.08707 23.0001 8.62449 22.5292L2.53728 16.3334C1.8946 15.6792 2.39788 14.5772 3.31313 14.6345L11.9819 15.1775C12.6407 15.2188 13.158 14.6217 13.0234 13.9755L11.2523 5.47226C11.0653 4.57449 12.0845 3.91949 12.8234 4.46253L19.8225 9.60602C20.3544 9.99689 21.1124 9.77433 21.3485 9.15795L24.4557 1.04698Z" fill="#030211"/>
</svg>
